<svg xmlns="http://www.w3.org/2000/svg" viewBox="0 0 508.52 508.52"><g fill="#005e7a"><path d="M506.365 253.183a253.183 253.183 0 1 1-506.365 0 253.183 253.183 0 1 1 506.365 0z" stroke="#523000" stroke-dashoffset="2.4"/><path d="M254.26 0C113.845 0 0 113.845 0 254.26s113.845 254.26 254.26 254.26 254.26-113.845 254.26-254.26S394.675 0 254.26 0zm0 476.737c-122.68 0-222.477-99.83-222.477-222.477 0-122.68 99.797-222.477 222.477-222.477 122.65 0 222.477 99.797 222.477 222.477 0 122.648-99.892 222.477-222.477 222.477z"/></g><path d="M365.626 153.128c-10.234-6.738-24.06-3.846-30.797 6.452l-107.3 163.966-51.296-47.483c-9.026-8.327-23.106-7.787-31.465 1.24-8.36 9.027-7.788 23.074 1.24 31.433l70.906 65.567.826.54 1.684 1.716 3.05 1.175 3.656 1.494 3.72.603 5.338-.064 2.16-.54 6.23-2.607.985-.667 3.814-2.765 1.78-2.955.094-.127 121.79-186.086c6.74-10.363 3.847-24.156-6.418-30.894z" fill="#fff"/></svg>