<svg xmlns="http://www.w3.org/2000/svg" preserveAspectRatio="xMidYMid" width="13" height="13" viewBox="0 0 13 13"><defs><style>.cls-2 { fill: #005e7a; }</style></defs><path d="M6.5-.005c-3.592 0-6.5 2.92-6.5 6.51s2.908 6.5 6.5 6.5c3.59 0 6.5-2.91 6.5-6.5s-2.91-6.51-6.5-6.51zM9.415 3.94c.163 0 .33.064.458.19l.585.584c.25.25.25.65 0 .902l-3.62 3.607-.585.586c-.093.092-.207.15-.328.175-.2.038-.417-.02-.574-.176l-.585-.587c-.03-.03-.058-.058-.08-.093L2.857 7.314c-.25-.25-.25-.653 0-.9l.585-.587c.25-.25.652-.25.902 0L5.808 7.29 8.97 4.13c.125-.126.282-.19.445-.19z" id="path-1" class="cls-2" fill-rule="evenodd"/></svg>