<svg xmlns="http://www.w3.org/2000/svg" preserveAspectRatio="xMidYMid" width="26" height="22" viewBox="0 0 26 22"><defs><style>.cls-2 { fill: #ffffff; }</style></defs><path d="M25.67 20.422c-.488.97-1.442 1.578-2.48 1.578H2.81C1.773 22 .82 21.393.33 20.422c-.488-.972-.43-2.15.15-3.062L10.667 1.316C11.19.493 12.064 0 13 0c.936 0 1.81.493 2.332 1.316l10.19 16.044c.317.5.478 1.08.478 1.662 0 .48-.11.96-.33 1.4zM14.444 5.867h-2.888v8.8h2.888v-8.8zm0 11.733v-1.467h-2.888v2.934h2.888V17.6z" id="path-1" class="cls-2" fill-rule="evenodd"/></svg>