<svg xmlns="http://www.w3.org/2000/svg" preserveAspectRatio="xMidYMid" width="14" height="14" viewBox="0 0 14 14"><defs><style>.cls-2 { fill: #2fa3d9; }</style></defs><path d="M7 14c-3.866 0-7-3.134-7-7s3.134-7 7-7 7 3.134 7 7-3.134 7-7 7zm-1.067-3h1.692V9.453H5.933V11zM7.03 2.993c-1.363 0-2.31.508-3.043 1.253l.948.904c.606-.576 1.263-.892 2.058-.892.91 0 1.453.44 1.453 1.084 0 .757-.733 1.22-2.337 1.276l-.064.057.253 1.83H7.32l.126-.916c1.402-.215 2.54-.86 2.54-2.293 0-1.423-1.188-2.304-2.957-2.304z" id="path-1" class="cls-2" fill-rule="evenodd"/></svg>