<svg xmlns="http://www.w3.org/2000/svg" preserveAspectRatio="xMidYMid" width="11" height="8" viewBox="0 0 11 8"><defs><style>.cls-2 { fill: #ffffff; }</style></defs><path d="M9.262.003c.224 0 .456.085.63.25l.804.772c.343.328.343.86 0 1.19L5.72 6.975l-.806.773c-.128.122-.284.2-.45.232-.277.05-.574-.027-.79-.232l-.806-.773c-.042-.04-.08-.077-.11-.124L.244 4.457c-.342-.33-.342-.862 0-1.19l.805-.773c.344-.33.895-.33 1.24 0l2.013 1.932L8.65.252c.172-.164.388-.25.612-.25z" id="path-1" class="cls-2" fill-rule="evenodd"/></svg>