<svg xmlns="http://www.w3.org/2000/svg" preserveAspectRatio="xMidYMid" width="13" height="13" viewBox="0 0 13 13"><defs><style>.cls-2 { fill: #005e7a; }</style></defs><path d="M6.5 13.005c-3.592 0-6.5-2.91-6.5-6.5s2.908-6.51 6.5-6.51c3.59 0 6.5 2.92 6.5 6.51s-2.91 6.5-6.5 6.5zm0-10.008C4.566 2.997 3 4.57 3 6.503c0 1.933 1.566 3.5 3.5 3.5 1.933 0 3.5-1.567 3.5-3.5S8.433 2.997 6.5 2.997zM6.5 9C5.12 9 4 7.88 4 6.5S5.12 4 6.5 4 9 5.12 9 6.5 7.88 9 6.5 9z" id="path-1" class="cls-2" fill-rule="evenodd"/></svg>