<?xml version="1.0" encoding="UTF-8" standalone="no"?>
<svg width="19px" height="19px" viewBox="0 0 19 19" version="1.1" xmlns="http://www.w3.org/2000/svg" xmlns:xlink="http://www.w3.org/1999/xlink">
    <!-- Generator: Sketch 43.1 (39012) - http://www.bohemiancoding.com/sketch -->
    <title>2</title>
    <desc>Created with Sketch.</desc>
    <defs></defs>
    <g id="Page-1" stroke="none" stroke-width="1" fill="none" fill-rule="evenodd">
        <g id="2">
            <ellipse id="Oval-Copy" fill="#B8E16A" cx="9.5" cy="9.5" rx="9.5" ry="9.5"></ellipse>
            <path d="M12.7539062,13.6484375 L7.1640625,13.6484375 L7.1640625,12.8691406 L10.1171875,9.58789062 C10.5546897,9.09179439 10.8564445,8.68847812 11.0224609,8.37792969 C11.1884774,8.06738126 11.2714844,7.74609541 11.2714844,7.4140625 C11.2714844,6.96874777 11.1367201,6.60351705 10.8671875,6.31835938 C10.5976549,6.0332017 10.2382835,5.890625 9.7890625,5.890625 C9.2499973,5.890625 8.83105618,6.04394378 8.53222656,6.35058594 C8.23339694,6.6572281 8.08398438,7.08398164 8.08398438,7.63085938 L7,7.63085938 C7,6.8456992 7.25292716,6.21093992 7.75878906,5.7265625 C8.26465097,5.24218508 8.94140201,5 9.7890625,5 C10.5820352,5 11.2089821,5.20800573 11.6699219,5.62402344 C12.1308617,6.04004114 12.3613281,6.59374654 12.3613281,7.28515625 C12.3613281,8.1250042 11.8261772,9.1249942 10.7558594,10.2851562 L8.47070312,12.7636719 L12.7539062,12.7636719 L12.7539062,13.6484375 Z" fill="#000000"></path>
        </g>
    </g>
</svg>