<?xml version="1.0" encoding="UTF-8" standalone="no"?>
<svg width="19px" height="19px" viewBox="0 0 19 19" version="1.1" xmlns="http://www.w3.org/2000/svg" xmlns:xlink="http://www.w3.org/1999/xlink">
    <!-- Generator: Sketch 43.1 (39012) - http://www.bohemiancoding.com/sketch -->
    <title>3</title>
    <desc>Created with Sketch.</desc>
    <defs></defs>
    <g id="Page-1" stroke="none" stroke-width="1" fill="none" fill-rule="evenodd">
        <g id="3">
            <ellipse id="Oval-Copy-2" fill="#FDBE80" cx="9.5" cy="9.5" rx="9.5" ry="9.5"></ellipse>
            <path d="M8.734375,8.85546875 L9.54882812,8.85546875 C10.0605494,8.84765621 10.4628892,8.71289193 10.7558594,8.45117188 C11.0488296,8.18945182 11.1953125,7.83593973 11.1953125,7.390625 C11.1953125,6.39062 10.6972706,5.890625 9.70117188,5.890625 C9.23241953,5.890625 8.85839983,6.02441272 8.57910156,6.29199219 C8.29980329,6.55957165 8.16015625,6.91406029 8.16015625,7.35546875 L7.07617188,7.35546875 C7.07617188,6.67968412 7.32323972,6.1181663 7.81738281,5.67089844 C8.31152591,5.22363058 8.93944932,5 9.70117188,5 C10.5058634,5 11.1367165,5.2128885 11.59375,5.63867188 C12.0507835,6.06445525 12.2792969,6.65624621 12.2792969,7.4140625 C12.2792969,7.78515811 12.1591809,8.14452951 11.9189453,8.4921875 C11.6787097,8.83984549 11.3515646,9.09960852 10.9375,9.27148438 C11.4062523,9.41992262 11.7685534,9.66601391 12.0244141,10.0097656 C12.2802747,10.3535173 12.4082031,10.773435 12.4082031,11.2695312 C12.4082031,12.0351601 12.1582056,12.6425759 11.6582031,13.0917969 C11.1582006,13.5410179 10.5078165,13.765625 9.70703125,13.765625 C8.906246,13.765625 8.25488532,13.5488303 7.75292969,13.1152344 C7.25097405,12.6816385 7,12.1093786 7,11.3984375 L8.08984375,11.3984375 C8.08984375,11.8476585 8.23632666,12.2070299 8.52929688,12.4765625 C8.82226709,12.7460951 9.21484129,12.8808594 9.70703125,12.8808594 C10.2304714,12.8808594 10.630858,12.744142 10.9082031,12.4707031 C11.1855483,12.1972643 11.3242188,11.8046901 11.3242188,11.2929687 C11.3242188,10.7968725 11.1718765,10.416017 10.8671875,10.1503906 C10.5624985,9.8847643 10.1230497,9.74804691 9.54882812,9.74023438 L8.734375,9.74023438 L8.734375,8.85546875 Z" fill="#000000"></path>
        </g>
    </g>
</svg>