<?xml version="1.0" encoding="iso-8859-1"?>
<!-- Generator: Adobe Illustrator 19.0.0, SVG Export Plug-In . SVG Version: 6.00 Build 0)  -->
<svg xmlns="http://www.w3.org/2000/svg" xmlns:xlink="http://www.w3.org/1999/xlink" version="1.1" id="Layer_1" x="0px" y="0px" viewBox="0 0 512 512" style="enable-background:new 0 0 512 512;" xml:space="preserve" width="512px" height="512px">
<g>
	<g>
		<g>
			<rect x="0.947" y="459.292" width="510.106" height="18.365" fill="#FFFFFF"/>
			<path d="M137.367,438.415h100.849V209.859H137.367V438.415z M155.732,228.221h64.12v191.831h-64.12V228.221z" fill="#FFFFFF"/>
			<path d="M273.797,438.415h100.841V292.772H273.797V438.415z M292.163,311.137h64.113v108.915h-64.113V311.137z" fill="#FFFFFF"/>
			<path d="M410.217,438.415H511.05V162.396H410.217V438.415z M428.582,180.759h64.105v239.293h-64.105V180.759z" fill="#FFFFFF"/>
			<path d="M0.947,438.415h100.849v-81.997H0.947V438.415z M19.31,374.779h64.12v45.274H19.31V374.779z" fill="#FFFFFF"/>
			<path d="M42.094,261.133c23.209,0,42.092-18.88,42.092-42.092c0-8.285-2.416-16.012-6.565-22.531l84.549-84.549     c6.52,4.149,14.246,6.564,22.53,6.564c8.287,0,16.015-2.417,22.535-6.568l84.552,84.552c-4.15,6.52-6.566,14.247-6.566,22.532     c0,23.209,18.883,42.092,42.089,42.092c23.212,0,42.092-18.88,42.092-42.092c0-8.292-2.42-16.025-6.576-22.549l84.546-84.546     c6.525,4.158,14.259,6.579,22.553,6.579c23.201,0,42.076-18.88,42.076-42.092c0-23.211-18.875-42.091-42.076-42.091     c-23.209,0-42.092,18.88-42.092,42.091c0,8.281,2.413,16.005,6.559,22.523l-84.556,84.556     c-6.519-4.148-14.244-6.562-22.527-6.562c-8.289,0-16.019,2.419-22.541,6.573L220.22,98.974     c4.153-6.522,6.571-14.252,6.571-22.54c0-23.209-18.88-42.091-42.092-42.091c-23.211,0-42.091,18.88-42.091,42.091     c0,8.291,2.419,16.023,6.574,22.546l-84.543,84.543c-6.523-4.155-14.254-6.573-22.544-6.573C18.88,176.95,0,195.832,0,219.041     S18.88,261.133,42.094,261.133z M469.924,52.708c13.079,0,23.711,10.644,23.711,23.729S483,100.165,469.924,100.165     c-13.082,0-23.729-10.644-23.729-23.729S456.845,52.708,469.924,52.708z M327.309,195.313c13.089,0,23.729,10.644,23.729,23.729     s-10.642,23.729-23.729,23.729c-13.079,0-23.729-10.644-23.729-23.729S314.232,195.313,327.309,195.313z M184.699,52.708     c13.084,0,23.729,10.644,23.729,23.729s-10.647,23.729-23.729,23.729c-13.084,0-23.729-10.644-23.729-23.729     S171.615,52.708,184.699,52.708z M42.094,195.313c13.084,0,23.729,10.644,23.729,23.729S55.176,242.77,42.094,242.77     c-13.084,0-23.734-10.644-23.734-23.729S29.01,195.313,42.094,195.313z" fill="#FFFFFF"/>
		</g>
	</g>
</g>
<g>
</g>
<g>
</g>
<g>
</g>
<g>
</g>
<g>
</g>
<g>
</g>
<g>
</g>
<g>
</g>
<g>
</g>
<g>
</g>
<g>
</g>
<g>
</g>
<g>
</g>
<g>
</g>
<g>
</g>
</svg>
