<?xml version="1.0" encoding="UTF-8" standalone="no"?>
<!-- Created with Inkscape (http://www.inkscape.org/) -->

<svg
   xmlns:dc="http://purl.org/dc/elements/1.1/"
   xmlns:cc="http://creativecommons.org/ns#"
   xmlns:rdf="http://www.w3.org/1999/02/22-rdf-syntax-ns#"
   xmlns:svg="http://www.w3.org/2000/svg"
   xmlns="http://www.w3.org/2000/svg"
   version="1.1"
   width="100%"
   height="100%"
   viewBox="0 0 508.52 508.52"
   id="Capa_1"
   xml:space="preserve"><metadata
   id="metadata49"><rdf:RDF><cc:Work
       rdf:about=""><dc:format>image/svg+xml</dc:format><dc:type
         rdf:resource="http://purl.org/dc/dcmitype/StillImage" /><dc:title></dc:title></cc:Work></rdf:RDF></metadata><defs
   id="defs47" />
<g
   id="g3">
 <g
   id="g5">
  <g
   id="g7">
   <g
   id="g9">
    <g
   id="g3031"><path
     d="m -159.45119,296.27756 a 253.18263,253.18263 0 1 1 -506.36526,0 253.18263,253.18263 0 1 1 506.36526,0 z"
     transform="translate(665.81645,-43.094915)"
     id="path3028"
     style="fill:#005e7a;fill-opacity:1;stroke:#523000;stroke-width:1;stroke-linecap:butt;stroke-linejoin:miter;stroke-miterlimit:4;stroke-opacity:1;stroke-dasharray:none;stroke-dashoffset:2.4" /><path
     d="M 254.26,0 C 113.845,0 0,113.845 0,254.26 0,394.675 113.845,508.52 254.26,508.52 394.675,508.52 508.52,394.675 508.52,254.26 508.52,113.845 394.675,0 254.26,0 z m 0,476.737 c -122.68,0 -222.477,-99.829 -222.477,-222.477 0,-122.68 99.797,-222.477 222.477,-222.477 122.649,0 222.477,99.797 222.477,222.477 0,122.648 -99.892,222.477 -222.477,222.477 z"
     id="path11"
     style="fill:#005e7a" /></g>
    <path
   d="m 365.626,153.128 c -10.234,-6.738 -24.059,-3.846 -30.797,6.452 L 227.531,323.546 176.234,276.063 c -9.026,-8.327 -23.106,-7.787 -31.465,1.24 -8.359,9.027 -7.787,23.074 1.24,31.433 l 70.907,65.567 0.826,0.54 1.684,1.716 3.051,1.176 3.655,1.494 3.719,0.604 5.339,-0.064 2.161,-0.54 6.229,-2.606 0.985,-0.667 3.814,-2.765 1.78,-2.956 0.095,-0.127 121.79,-186.086 c 6.74,-10.363 3.847,-24.156 -6.418,-30.894 z"
   id="path13"
   style="fill:#ffffff" />
   </g>
  </g>
 </g>
</g>
<g
   id="g15">
</g>
<g
   id="g17">
</g>
<g
   id="g19">
</g>
<g
   id="g21">
</g>
<g
   id="g23">
</g>
<g
   id="g25">
</g>
<g
   id="g27">
</g>
<g
   id="g29">
</g>
<g
   id="g31">
</g>
<g
   id="g33">
</g>
<g
   id="g35">
</g>
<g
   id="g37">
</g>
<g
   id="g39">
</g>
<g
   id="g41">
</g>
<g
   id="g43">
</g>
</svg>