<svg xmlns="http://www.w3.org/2000/svg" xmlns:xlink="http://www.w3.org/1999/xlink" preserveAspectRatio="xMidYMid" width="13" height="13" viewBox="0 0 13 13">
  <defs>
    <style>

      .cls-2 {
        fill: #599BCB;
      }
    </style>
  </defs>
  <path d="M6.500,-0.005 C2.908,-0.005 0.000,2.915 0.000,6.505 C0.000,10.096 2.908,13.005 6.500,13.005 C10.090,13.005 13.000,10.096 13.000,6.505 C13.000,2.915 10.090,-0.005 6.500,-0.005 C6.500,-0.005 6.500,-0.005 6.500,-0.005 ZM9.415,3.940 C9.578,3.940 9.746,4.004 9.873,4.129 C9.873,4.129 10.458,4.714 10.458,4.714 C10.707,4.963 10.707,5.365 10.458,5.616 C10.458,5.616 6.839,9.223 6.839,9.223 C6.839,9.223 6.253,9.809 6.253,9.809 C6.160,9.902 6.046,9.960 5.925,9.985 C5.724,10.023 5.508,9.965 5.351,9.809 C5.351,9.809 4.765,9.223 4.765,9.223 C4.734,9.192 4.707,9.165 4.685,9.130 C4.685,9.130 2.857,7.314 2.857,7.314 C2.608,7.064 2.608,6.661 2.857,6.413 C2.857,6.413 3.442,5.827 3.442,5.827 C3.693,5.576 4.094,5.576 4.344,5.827 C4.344,5.827 5.808,7.291 5.808,7.291 C5.808,7.291 8.970,4.129 8.970,4.129 C9.095,4.004 9.252,3.940 9.415,3.940 C9.415,3.940 9.415,3.940 9.415,3.940 Z" id="path-1" class="cls-2" fill-rule="evenodd"/>
</svg>
