<svg xmlns="http://www.w3.org/2000/svg" xmlns:xlink="http://www.w3.org/1999/xlink" preserveAspectRatio="xMidYMid" width="11" height="8" viewBox="0 0 11 8">
  <defs>
    <style>

      .cls-2 {
        fill: #ffffff;
      }
    </style>
  </defs>
  <path d="M9.262,0.003 C9.486,0.003 9.718,0.088 9.891,0.252 C9.891,0.252 10.696,1.025 10.696,1.025 C11.039,1.353 11.039,1.884 10.696,2.215 C10.696,2.215 5.719,6.975 5.719,6.975 C5.719,6.975 4.914,7.748 4.914,7.748 C4.786,7.870 4.630,7.948 4.464,7.980 C4.187,8.030 3.890,7.953 3.674,7.748 C3.674,7.748 2.868,6.975 2.868,6.975 C2.826,6.934 2.788,6.898 2.758,6.851 C2.758,6.851 0.244,4.456 0.244,4.456 C-0.098,4.125 -0.098,3.594 0.244,3.266 C0.244,3.266 1.049,2.493 1.049,2.493 C1.394,2.162 1.945,2.162 2.290,2.493 C2.290,2.493 4.303,4.425 4.303,4.425 C4.303,4.425 8.651,0.252 8.651,0.252 C8.822,0.088 9.038,0.003 9.262,0.003 Z" id="path-1" class="cls-2" fill-rule="evenodd"/>
</svg>
