<svg xmlns="http://www.w3.org/2000/svg" xmlns:xlink="http://www.w3.org/1999/xlink" preserveAspectRatio="xMidYMid" width="26" height="22" viewBox="0 0 26 22">
  <defs>
    <style>

      .cls-2 {
        fill: #ffffff;
      }
    </style>
  </defs>
  <path d="M25.670,20.422 C25.182,21.393 24.228,22.000 23.189,22.000 C23.189,22.000 2.811,22.000 2.811,22.000 C1.772,22.000 0.818,21.393 0.330,20.422 C-0.158,19.450 -0.101,18.273 0.479,17.360 C0.479,17.360 10.668,1.316 10.668,1.316 C11.190,0.493 12.064,-0.000 13.000,-0.000 C13.936,-0.000 14.810,0.493 15.332,1.316 C15.332,1.316 25.521,17.360 25.521,17.360 C25.839,17.860 26.000,18.440 26.000,19.022 C26.000,19.502 25.891,19.983 25.670,20.422 ZM14.444,5.867 C14.444,5.867 11.556,5.867 11.556,5.867 C11.556,5.867 11.556,14.667 11.556,14.667 C11.556,14.667 14.444,14.667 14.444,14.667 C14.444,14.667 14.444,5.867 14.444,5.867 ZM14.444,17.600 C14.444,17.600 14.444,16.133 14.444,16.133 C14.444,16.133 11.556,16.133 11.556,16.133 C11.556,16.133 11.556,17.600 11.556,17.600 C11.556,17.600 11.556,19.067 11.556,19.067 C11.556,19.067 14.444,19.067 14.444,19.067 C14.444,19.067 14.444,17.600 14.444,17.600 Z" id="path-1" class="cls-2" fill-rule="evenodd"/>
</svg>
