<svg xmlns="http://www.w3.org/2000/svg" xmlns:xlink="http://www.w3.org/1999/xlink" preserveAspectRatio="xMidYMid" width="14" height="14" viewBox="0 0 14 14">
  <defs>
    <style>

      .cls-2 {
        fill: #2fa3d9;
      }
    </style>
  </defs>
  <path d="M7.000,14.000 C3.134,14.000 -0.000,10.866 -0.000,7.000 C-0.000,3.134 3.134,-0.000 7.000,-0.000 C10.866,-0.000 14.000,3.134 14.000,7.000 C14.000,10.866 10.866,14.000 7.000,14.000 ZM5.933,11.000 C5.933,11.000 7.625,11.000 7.625,11.000 C7.625,11.000 7.625,9.453 7.625,9.453 C7.625,9.453 5.933,9.453 5.933,9.453 C5.933,9.453 5.933,11.000 5.933,11.000 ZM7.031,2.993 C5.667,2.993 4.720,3.501 3.987,4.246 C3.987,4.246 4.935,5.150 4.935,5.150 C5.541,4.574 6.198,4.258 6.993,4.258 C7.903,4.258 8.446,4.698 8.446,5.342 C8.446,6.099 7.713,6.562 6.109,6.618 C6.109,6.618 6.046,6.675 6.046,6.675 C6.046,6.675 6.299,8.504 6.299,8.504 C6.299,8.504 7.322,8.504 7.322,8.504 C7.322,8.504 7.448,7.589 7.448,7.589 C8.850,7.375 9.987,6.731 9.987,5.297 C9.987,3.874 8.800,2.993 7.031,2.993 Z" id="path-1" class="cls-2" fill-rule="evenodd"/>
</svg>
