<svg id="Layer_1" data-name="Layer 1" xmlns="http://www.w3.org/2000/svg" viewBox="0 0 52.5 52.75"><defs><style>.cls-1,.cls-15{fill:#fff;}.cls-1{opacity:0;}.cls-11,.cls-2{fill:#808285;}.cls-3,.cls-4{fill:#58595b;}.cls-11,.cls-15,.cls-3,.cls-8{fill-rule:evenodd;}.cls-5{fill:#bcbec0;}.cls-6{fill:#a7a9ac;}.cls-12,.cls-13,.cls-14,.cls-17,.cls-18,.cls-19,.cls-7{fill:none;}.cls-7{stroke:#a7a9ac;}.cls-12,.cls-14,.cls-18,.cls-19,.cls-7{stroke-miterlimit:10;}.cls-8,.cls-9{fill:#e6e7e8;}.cls-10{fill:#e7e7e8;}.cls-12{stroke:#58595b;}.cls-14{stroke:#808285;}.cls-16{fill:#a2cd3a;}.cls-17{stroke:#a2cd3a;stroke-miterlimit:8;}.cls-18{stroke:#bcbec0;}.cls-19{stroke:#e6e7e8;}</style></defs><title>BW ICON</title><rect class="cls-1" x="-3.03" y="-2.74" width="58" height="58"/><rect class="cls-2" x="5.47" y="5.76" width="14" height="14"/><rect class="cls-2" x="5.47" y="5.76" width="14" height="14"/><polygon class="cls-3" points="12.84 5.76 14.37 5.76 13.91 6.99 13.38 8.15 13.06 8.95 12.73 9.69 12.44 10.24 12.07 10.74 12.46 11.25 12.77 11.78 13.21 12.48 13.73 13.05 14.33 13.53 14.96 13.99 15.69 14.41 16.5 14.8 17.33 14.17 18.31 13.55 19.48 12.98 19.48 14.61 18.66 15.04 17.94 15.51 18.71 15.79 19.48 16.01 19.48 17.48 18.58 17.26 17.7 16.95 16.87 16.58 16.76 16.56 16.74 16.58 16.41 16.98 16.12 17.48 15.84 18.05 15.51 18.69 14.98 19.76 13.28 19.76 13.73 19 14.15 18.18 14.54 17.33 14.98 16.58 15.4 15.9 14.76 15.55 14.13 15.18 13.52 14.78 12.97 14.3 12.44 13.77 11.94 13.2 11.5 12.5 11.21 12.02 10.87 11.58 10.34 11.84 9.57 12.24 8.65 12.72 7.75 13.14 6.79 13.62 5.87 14.12 6.55 14.52 7.25 14.94 7.88 15.42 8.46 15.9 8.65 16.03 8.83 16.21 9.02 16.43 9.18 16.76 9.29 17.09 9.31 17.48 9.27 17.99 9.16 18.47 9 18.86 8.8 19.21 8.65 19.5 8.46 19.76 6.77 19.76 6.92 19.5 7.53 18.53 7.69 18.16 7.8 17.81 7.86 17.48 7.86 17.39 7.82 17.31 7.82 17.26 7.78 17.22 7.73 17.2 7.64 17.15 7.56 17.06 7.45 16.95 6.88 16.47 6.22 16.01 5.47 15.55 5.47 12.65 7.14 11.82 8.02 11.38 8.89 10.96 9.31 10.72 9.7 10.55 9 10.11 8.19 9.8 7.38 9.6 6.53 9.56 6.02 9.58 5.47 9.67 5.47 8.18 6 8.13 6.53 8.09 7.51 8.15 8.46 8.35 9.4 8.68 10.23 9.14 11.04 9.71 11.21 9.45 11.37 9.16 11.72 8.35 12.07 7.56 12.46 6.66 12.84 5.76"/><polygon class="cls-4" points="12.84 5.76 14.37 5.76 13.91 6.99 13.38 8.15 13.06 8.95 12.73 9.69 12.44 10.24 12.07 10.74 12.46 11.25 12.77 11.78 13.21 12.48 13.73 13.05 14.33 13.53 14.96 13.99 15.69 14.41 16.5 14.8 17.33 14.17 18.31 13.55 19.48 12.98 19.48 14.61 18.66 15.04 17.94 15.51 18.71 15.79 19.48 16.01 19.48 17.48 18.58 17.26 17.7 16.95 16.87 16.58 16.76 16.56 16.74 16.58 16.41 16.98 16.12 17.48 15.84 18.05 15.51 18.69 14.98 19.76 13.28 19.76 13.73 19 14.15 18.18 14.54 17.33 14.98 16.58 15.4 15.9 14.76 15.55 14.13 15.18 13.52 14.78 12.97 14.3 12.44 13.77 11.94 13.2 11.5 12.5 11.21 12.02 10.87 11.58 10.34 11.84 9.57 12.24 8.65 12.72 7.75 13.14 6.79 13.62 5.87 14.12 6.55 14.52 7.25 14.94 7.88 15.42 8.46 15.9 8.65 16.03 8.83 16.21 9.02 16.43 9.18 16.76 9.29 17.09 9.31 17.48 9.27 17.99 9.16 18.47 9 18.86 8.8 19.21 8.65 19.5 8.46 19.76 6.77 19.76 6.92 19.5 7.53 18.53 7.69 18.16 7.8 17.81 7.86 17.48 7.86 17.39 7.82 17.31 7.82 17.26 7.78 17.22 7.73 17.2 7.64 17.15 7.56 17.06 7.45 16.95 6.88 16.47 6.22 16.01 5.47 15.55 5.47 12.65 7.14 11.82 8.02 11.38 8.89 10.96 9.31 10.72 9.7 10.55 9 10.11 8.19 9.8 7.38 9.6 6.53 9.56 6.02 9.58 5.47 9.67 5.47 8.18 6 8.13 6.53 8.09 7.51 8.15 8.46 8.35 9.4 8.68 10.23 9.14 11.04 9.71 11.21 9.45 11.37 9.16 11.72 8.35 12.07 7.56 12.46 6.66 12.84 5.76"/><rect class="cls-5" x="33.47" y="5.76" width="14" height="14"/><rect class="cls-2" x="33.47" y="5.76" width="14" height="14"/><rect class="cls-6" x="5.47" y="33.76" width="14" height="14"/><rect class="cls-7" x="5.47" y="33.76" width="14" height="14"/><polygon class="cls-8" points="14.44 33.2 19.48 33.2 19.48 47.76 4.91 47.76 4.91 43.68 5.32 43.64 5.82 43.62 6.37 43.64 6.94 43.66 7.49 43.71 7.56 43.71 7.6 43.71 7.69 43.71 7.74 43.71 7.81 43.71 7.83 43.64 7.88 43.52 7.94 43.39 8.1 42.77 8.22 42.09 8.24 41.81 8.35 41.54 8.58 40.99 8.97 40.47 9.52 39.99 10.18 39.56 11 39.15 11.25 39.03 11.54 38.92 11.84 38.81 12.14 38.67 12.32 38.49 12.41 38.26 12.41 37.96 12.34 37.65 12.23 37.35 12.16 37.14 12.09 37.03 12.02 36.71 12 36.32 12 35.89 12.14 35.39 12.43 34.86 12.66 34.61 12.89 34.34 13.21 34.11 13.55 33.86 13.73 33.75 14.01 33.59 14.19 33.45 14.3 33.36 14.39 33.27 14.44 33.2"/><polygon class="cls-9" points="14.75 33.26 19.91 33.26 19.91 48.2 4.97 48.2 4.97 44.02 5.4 43.97 5.91 43.95 6.47 43.97 7.05 43.99 7.62 44.04 7.69 44.04 7.73 44.04 7.83 44.04 7.87 44.04 7.94 44.04 7.97 43.97 8.01 43.85 8.08 43.71 8.25 43.08 8.37 42.38 8.39 42.1 8.51 41.82 8.74 41.26 9.14 40.72 9.7 40.23 10.38 39.78 11.22 39.37 11.47 39.25 11.78 39.13 12.08 39.01 12.38 38.87 12.57 38.69 12.67 38.45 12.67 38.15 12.6 37.82 12.48 37.52 12.41 37.31 12.34 37.19 12.27 36.86 12.24 36.47 12.24 36.02 12.38 35.51 12.69 34.97 12.92 34.71 13.16 34.43 13.48 34.2 13.84 33.94 14.02 33.82 14.3 33.66 14.49 33.52 14.61 33.43 14.7 33.33 14.75 33.26"/><path class="cls-10" d="M16.78,34.76l.37,0,.37.13.37.13.37.09.07,0h.11l.31,0,.22,0,.13,0h.15v0l0-.07,0-.07.07-.07,0-.07,0-.09v13h-14V45.31h0l0,0h0l0,0h.11l.5,0h.53l.55,0,.53.07h.46l.39,0L9,45.12l.26-.26.24-.37.18-.43.15-.5L10,43l.07-.52,0,0,0-.07v0l.2-.37.31-.35.37-.28.46-.26.46-.24.11,0,.22,0,.26-.07.31-.09.31-.11.28-.11.2-.15.15-.26.11-.37.07-.48,0-.52v-.52l-.07-.5-.13-.5-.07-.28.07-.26.13-.24.11-.13.11-.13.46-.35.2-.11.24-.17.33-.2.35-.2.37-.17.37-.09Zm-.37,1.09Z"/><path class="cls-11" d="M17.05,34.3l.4,0,.4.14.4.14.4.09.07,0h.12l.33,0,.24,0,.14,0h.16v0l0-.07,0-.07.07-.07,0-.07,0-.09V48.26h-15V45.63h0l0,0H5l0,0h.12l.54,0h.56l.59,0,.56.07h.49l.42,0,.38-.16L9,45.14l.26-.4.19-.47.16-.54.12-.61.07-.56,0,0,0-.07v0l.21-.4.33-.37.4-.3.49-.28.49-.26.12,0,.24,0,.28-.07.33-.09.33-.12.31-.12.21-.16.16-.28.12-.4.07-.51,0-.56v-.56l-.07-.54-.14-.54-.07-.3.07-.28L13.9,36l.12-.14.12-.14.49-.37.21-.12L15.1,35l.35-.21.38-.21.4-.19.4-.09Zm-.4,1.17Z"/><polygon class="cls-3" points="33.48 5.76 46.48 5.76 46.45 5.93 46.38 6.1 46.26 6.24 46.05 6.34 45.75 6.39 45.37 6.39 45.16 6.41 44.9 6.57 44.66 6.74 44.43 6.97 44.31 7.2 44.29 7.41 44.36 7.68 44.43 8.01 44.48 8.36 44.5 8.74 44.48 9.11 44.36 9.46 44.15 9.82 43.87 10.11 43.44 10.36 43.14 10.56 42.88 10.79 42.64 11.06 42.48 11.33 42.27 11.65 42.1 11.89 41.89 12.12 41.66 12.33 41.37 12.46 41 12.48 40.62 12.41 40.32 12.29 40.03 12.12 39.75 11.94 39.45 11.79 39.07 11.75 38.76 11.79 38.46 11.94 38.25 12.16 38.11 12.46 38.04 12.75 38.01 13.1 37.87 13.47 37.68 13.85 37.42 14.2 37.05 14.51 36.65 14.68 36.2 14.76 35.73 14.74 35.33 14.64 35.03 14.43 34.74 14.14 34.56 13.83 34.34 13.56 34.09 13.31 33.8 13.12 33.48 13.06 33.48 5.76"/><polygon class="cls-12" points="33.48 5.76 46.48 5.76 46.45 5.93 46.38 6.1 46.26 6.24 46.05 6.34 45.75 6.39 45.37 6.39 45.16 6.41 44.9 6.57 44.66 6.74 44.43 6.97 44.31 7.2 44.29 7.41 44.36 7.68 44.43 8.01 44.48 8.36 44.5 8.74 44.48 9.11 44.36 9.46 44.15 9.82 43.87 10.11 43.44 10.36 43.14 10.56 42.88 10.79 42.64 11.06 42.48 11.33 42.27 11.65 42.1 11.89 41.89 12.12 41.66 12.33 41.37 12.46 41 12.48 40.62 12.41 40.32 12.29 40.03 12.12 39.75 11.94 39.45 11.79 39.07 11.75 38.76 11.79 38.46 11.94 38.25 12.16 38.11 12.46 38.04 12.75 38.01 13.1 37.87 13.47 37.68 13.85 37.42 14.2 37.05 14.51 36.65 14.68 36.2 14.76 35.73 14.74 35.33 14.64 35.03 14.43 34.74 14.14 34.56 13.83 34.34 13.56 34.09 13.31 33.8 13.12 33.48 13.06 33.48 5.76"/><polygon class="cls-3" points="46.95 13.76 47.17 13.79 47.32 13.91 47.48 14.05 47.48 19.76 41.63 19.76 41.56 19.69 41.52 19.57 41.5 19.45 41.48 19.31 41.52 18.97 41.67 18.66 41.87 18.45 42.11 18.21 42.3 17.95 42.52 17.73 42.65 17.42 42.7 17.09 42.7 15.87 42.76 15.6 42.89 15.41 43.07 15.24 43.31 15.15 43.55 15.13 43.81 15.15 44.05 15.24 44.27 15.34 44.46 15.44 44.73 15.48 45.05 15.44 45.31 15.27 45.55 15.03 45.73 14.77 45.95 14.48 46.14 14.19 46.36 13.96 46.65 13.81 46.95 13.76"/><polygon class="cls-13" points="46.95 13.76 47.17 13.79 47.32 13.91 47.48 14.05 47.48 19.76 41.63 19.76 41.56 19.69 41.52 19.57 41.5 19.45 41.48 19.31 41.52 18.97 41.67 18.66 41.87 18.45 42.11 18.21 42.3 17.95 42.52 17.73 42.65 17.42 42.7 17.09 42.7 15.87 42.76 15.6 42.89 15.41 43.07 15.24 43.31 15.15 43.55 15.13 43.81 15.15 44.05 15.24 44.27 15.34 44.46 15.44 44.73 15.48 45.05 15.44 45.31 15.27 45.55 15.03 45.73 14.77 45.95 14.48 46.14 14.19 46.36 13.96 46.65 13.81 46.95 13.76"/><polygon class="cls-11" points="46.84 15.76 46.84 15.76 46.9 15.79 46.96 15.81 47 15.89 47.38 16.4 47.44 16.45 47.48 16.5 47.48 19.76 43.53 19.76 43.52 19.66 43.52 19.56 43.52 19.51 43.48 19.38 43.52 19.28 43.55 19.18 43.79 18.93 44.01 18.55 44.21 18.14 44.37 17.66 44.45 17.08 44.45 17.03 44.47 16.95 44.51 16.9 44.56 16.88 44.62 16.83 44.68 16.83 44.82 16.88 44.98 16.88 45.48 16.8 45.89 16.62 46.31 16.32 46.66 15.87 46.72 15.81 46.78 15.79 46.84 15.76"/><polygon class="cls-11" points="33.48 5.76 43.48 5.76 43.48 5.81 43.45 5.87 43.43 5.89 43.36 5.94 43.34 5.98 43.01 6.42 42.78 6.88 42.68 7.32 42.71 7.76 42.82 8.28 42.89 8.7 42.89 9.03 42.8 9.23 42.64 9.4 42.15 9.69 41.75 10.04 41.45 10.41 41.2 10.78 41.01 11.09 40.96 11.13 40.94 11.18 40.87 11.22 40.78 11.22 40.68 11.22 40.64 11.2 40.34 11 39.96 10.85 39.52 10.72 39.01 10.67 38.45 10.74 37.92 10.94 37.45 11.22 37.06 11.59 36.78 12.05 36.59 12.58 36.52 13.13 36.48 13.32 36.38 13.5 36.31 13.65 36.24 13.72 36.2 13.76 36.1 13.76 36.08 13.76 35.99 13.76 35.94 13.72 35.89 13.65 35.68 13.37 35.45 13.04 35.17 12.76 34.85 12.49 34.45 12.27 34.01 12.12 33.48 12.05 33.48 5.76"/><polygon class="cls-14" points="33.48 5.76 43.48 5.76 43.48 5.81 43.45 5.87 43.43 5.89 43.36 5.94 43.34 5.98 43.01 6.42 42.78 6.88 42.68 7.32 42.71 7.76 42.82 8.28 42.89 8.7 42.89 9.03 42.8 9.23 42.64 9.4 42.15 9.69 41.75 10.04 41.45 10.41 41.2 10.78 41.01 11.09 40.96 11.13 40.94 11.18 40.87 11.22 40.78 11.22 40.68 11.22 40.64 11.2 40.34 11 39.96 10.85 39.52 10.72 39.01 10.67 38.45 10.74 37.92 10.94 37.45 11.22 37.06 11.59 36.78 12.05 36.59 12.58 36.52 13.13 36.48 13.32 36.38 13.5 36.31 13.65 36.24 13.72 36.2 13.76 36.1 13.76 36.08 13.76 35.99 13.76 35.94 13.72 35.89 13.65 35.68 13.37 35.45 13.04 35.17 12.76 34.85 12.49 34.45 12.27 34.01 12.12 33.48 12.05 33.48 5.76"/><path class="cls-15" d="M0,.26H24v24H0ZM2.65,2.93V21.59H21.3V2.93Z"/><path class="cls-15" d="M28,.26H52v24H28Zm2.69,2.67V21.59H49.31V2.93Z"/><path class="cls-15" d="M0,28.26H24v24H0Zm2.67,2.67V49.59H21.3V30.93Z"/><rect class="cls-13" x="-3.03" y="-2.74" width="58" height="58"/><rect class="cls-16" x="33.47" y="33.89" width="14" height="14"/><rect class="cls-17" x="33.47" y="33.89" width="14" height="14"/><rect class="cls-16" x="33.47" y="33.89" width="14" height="14"/><rect class="cls-18" x="33.47" y="33.89" width="14" height="14"/><rect class="cls-5" x="33.47" y="33.89" width="14" height="14"/><rect class="cls-18" x="33.47" y="33.89" width="14" height="14"/><polygon class="cls-8" points="44.6 33.89 44.88 33.91 45.08 34.03 45.3 34.22 45.47 34.5 45.64 34.87 45.79 35.29 45.95 35.78 46.1 36.28 46.29 36.86 46.51 37.42 46.68 37.98 46.9 38.52 47.13 38.99 47.4 39.44 47.65 39.72 47.96 39.86 47.96 48.45 37.81 48.45 38.42 48.15 39.04 47.89 39.72 47.66 40.39 47.47 41.03 47.19 41.68 46.84 40.69 46.44 39.67 46.16 38.66 45.95 37.64 45.66 37.16 45.48 36.66 45.29 36.21 45.03 35.8 44.73 35.48 44.33 35.82 44.05 36.21 43.86 36.66 43.77 37.21 43.7 37.77 43.7 38.29 43.7 38.81 43.65 39.33 43.51 39.82 43.23 40.15 42.92 40.3 42.62 40.41 42.34 40.43 42.01 40.43 41.69 40.45 41.38 40.54 41.1 40.71 40.8 41.03 40.49 41.34 40.33 41.7 40.28 42.09 40.26 42.53 40.26 42.96 40.26 43.02 39.77 43 39.34 42.85 38.97 42.72 38.64 42.55 38.31 42.35 38.01 42.18 37.63 42.05 37.24 41.97 36.79 41.97 36.46 42.01 36.16 42.09 35.92 42.22 35.71 42.42 35.55 42.63 35.34 42.85 35.15 43.13 34.9 43.57 34.47 43.98 34.17 44.32 33.96 44.6 33.89"/><polygon class="cls-14" points="44.25 33.89 44.52 33.91 44.71 34.02 44.92 34.2 45.08 34.47 45.25 34.83 45.4 35.24 45.54 35.71 45.69 36.18 45.87 36.75 46.08 37.29 46.25 37.83 46.46 38.34 46.69 38.8 46.93 39.22 47.18 39.49 47.48 39.63 47.48 47.89 37.72 47.89 38.3 47.6 38.91 47.35 39.55 47.12 40.2 46.94 40.82 46.67 41.44 46.34 40.49 45.95 39.51 45.68 38.53 45.48 37.55 45.21 37.1 45.03 36.62 44.85 36.18 44.6 35.79 44.31 35.48 43.93 35.81 43.66 36.18 43.48 36.62 43.39 37.14 43.32 37.68 43.32 38.18 43.32 38.68 43.27 39.18 43.14 39.66 42.87 39.97 42.58 40.11 42.28 40.22 42.01 40.24 41.7 40.24 41.38 40.26 41.09 40.34 40.82 40.51 40.53 40.82 40.24 41.11 40.08 41.47 40.03 41.84 40.01 42.26 40.01 42.67 40.01 42.73 39.54 42.71 39.13 42.57 38.77 42.44 38.46 42.28 38.14 42.09 37.85 41.92 37.49 41.8 37.11 41.71 36.68 41.71 36.36 41.76 36.07 41.84 35.85 41.96 35.64 42.15 35.49 42.36 35.28 42.57 35.1 42.84 34.86 43.25 34.45 43.65 34.16 43.98 33.96 44.25 33.89"/><polygon class="cls-8" points="33.48 33.89 40.48 33.89 40.45 34.24 40.36 34.59 40.25 34.85 39.96 35.26 39.58 35.52 39.2 35.7 38.8 35.84 38.4 35.96 38 36.1 37.62 36.34 37.27 36.65 37.02 37.02 36.89 37.45 36.86 37.85 36.89 38.27 36.95 38.72 37 39.14 37.02 39.57 37 39.97 36.84 40.37 36.57 40.75 36.35 40.89 36.11 40.87 35.86 40.75 35.57 40.51 35.28 40.25 34.92 39.92 34.59 39.57 34.21 39.24 33.85 38.88 33.48 38.6 33.48 33.89"/><polygon class="cls-14" points="33.48 33.89 40.48 33.89 40.45 34.24 40.36 34.59 40.25 34.85 39.96 35.26 39.58 35.52 39.2 35.7 38.8 35.84 38.4 35.96 38 36.1 37.62 36.34 37.27 36.65 37.02 37.02 36.89 37.45 36.86 37.85 36.89 38.27 36.95 38.72 37 39.14 37.02 39.57 37 39.97 36.84 40.37 36.57 40.75 36.35 40.89 36.11 40.87 35.86 40.75 35.57 40.51 35.28 40.25 34.92 39.92 34.59 39.57 34.21 39.24 33.85 38.88 33.48 38.6 33.48 33.89"/><polygon class="cls-8" points="33.48 33.89 39.48 33.89 39.48 34.03 39.43 34.1 39.43 34.19 39.29 34.33 39.13 34.44 38.88 34.51 38.51 34.63 38.16 34.74 37.77 34.88 37.31 35.09 36.89 35.37 36.5 35.72 36.15 36.18 35.9 36.64 35.78 37.13 35.74 37.59 35.74 38.03 35.78 38.45 35.83 38.8 35.83 38.89 35.76 38.8 35.48 38.52 34.84 37.99 34.17 37.5 33.48 37.13 33.48 33.89"/><polygon class="cls-9" points="33.48 33.89 40.1 33.89 40.1 34.04 40.05 34.12 40.05 34.22 39.9 34.37 39.72 34.5 39.44 34.58 39.03 34.71 38.65 34.83 38.21 34.99 37.7 35.22 37.25 35.52 36.81 35.91 36.43 36.42 36.15 36.93 36.02 37.47 35.97 37.98 35.97 38.46 36.02 38.92 36.07 39.31 36.07 39.41 36 39.31 35.69 39 34.98 38.41 34.24 37.88 33.48 37.47 33.48 33.89"/><polygon class="cls-8" points="44.26 35.89 44.4 36.25 44.54 36.66 44.68 37.08 44.88 37.7 45.09 38.26 45.27 38.81 45.49 39.33 45.73 39.82 46.02 40.24 46.3 40.63 46.65 40.93 47.03 41.12 47.48 41.2 47.48 47.89 41.18 47.89 41.68 47.7 42.17 47.4 42.39 47.2 42.55 46.97 42.66 46.65 42.67 46.35 42.63 46.03 42.49 45.75 42.29 45.52 42.05 45.37 41.18 45.03 40.33 44.77 39.48 44.56 39.98 44.39 40.47 44.07 40.85 43.77 41.12 43.43 41.32 43.08 41.44 42.76 41.48 42.44 41.5 42.17 41.52 41.91 41.52 41.82 41.52 41.74 41.52 41.67 41.56 41.61 41.58 41.61 41.62 41.59 41.8 41.57 42.05 41.57 42.39 41.57 42.63 41.57 42.88 41.57 43.22 41.46 43.55 41.29 43.75 40.99 43.87 40.63 43.95 40.05 43.93 39.52 43.83 39.09 43.69 38.69 43.51 38.34 43.34 38.07 43.14 37.73 43.02 37.38 43 37.26 42.98 37.15 42.98 37.08 42.98 37.02 42.98 37 42.98 36.98 42.98 37 43 37 43.02 36.98 43.08 36.91 43.12 36.89 43.16 36.85 43.45 36.64 43.71 36.38 43.93 36.15 44.13 35.99 44.26 35.89"/><polygon class="cls-19" points="44.26 35.89 44.4 36.25 44.54 36.66 44.68 37.08 44.88 37.7 45.09 38.26 45.27 38.81 45.49 39.33 45.73 39.82 46.02 40.24 46.3 40.63 46.65 40.93 47.03 41.12 47.48 41.2 47.48 47.89 41.18 47.89 41.68 47.7 42.17 47.4 42.39 47.2 42.55 46.97 42.66 46.65 42.67 46.35 42.63 46.03 42.49 45.75 42.29 45.52 42.05 45.37 41.18 45.03 40.33 44.77 39.48 44.56 39.98 44.39 40.47 44.07 40.85 43.77 41.12 43.43 41.32 43.08 41.44 42.76 41.48 42.44 41.5 42.17 41.52 41.91 41.52 41.82 41.52 41.74 41.52 41.67 41.56 41.61 41.58 41.61 41.62 41.59 41.8 41.57 42.05 41.57 42.39 41.57 42.63 41.57 42.88 41.57 43.22 41.46 43.55 41.29 43.75 40.99 43.87 40.63 43.95 40.05 43.93 39.52 43.83 39.09 43.69 38.69 43.51 38.34 43.34 38.07 43.14 37.73 43.02 37.38 43 37.26 42.98 37.15 42.98 37.08 42.98 37.02 42.98 37 42.98 36.98 42.98 37 43 37 43.02 36.98 43.08 36.91 43.12 36.89 43.16 36.85 43.45 36.64 43.71 36.38 43.93 36.15 44.13 35.99 44.26 35.89"/><path class="cls-15" d="M28,28.39H52v24H28Zm2.69,2.67V49.72H49.31V31.06Z"/><polygon class="cls-8" points="41.68 46.84 37.81 48.39 41.23 48.45 41.68 46.84"/><path class="cls-8" d="M46.47,39.51a2.26,2.26,0,0,0,1.56.94L48,42.51a9.44,9.44,0,0,1-1.62-1.25C46.35,41.08,46.47,39.51,46.47,39.51Z"/><path class="cls-8" d="M34.16,38.33,34,38.21l-1-.69-.12-4.25,7.31.13s.06,1.19-.69,1.5-2.81.25-3.19,1.19-1.19,2.75-1.19,2.75Z"/></svg>